{"asset":{"version":"2.0","generator":"Footwear Files fixtures"},"scene":0,"scenes":[{"nodes":[0]}],"nodes":[{"mesh":0}],"meshes":[{"primitives":[{"attributes":{"POSITION":0},"indices":1}]}],"buffers":[{"byteLength":129984,"uri":"data:application/octet-stream;base64,"}],"bufferViews":[{"buffer":0,"byteOffset":0,"byteLength":43344,"target":34962},{"buffer":0,"byteOffset":43344,"byteLength":86640,"target":34963}],"accessors":[{"bufferView":0,"componentType":5126,"count":3612,"type":"VEC3","min":[-0.039660073816776276,0.00014606761396862566,-0.25358396768569946],"max":[0.05566007271409035,0.06568951159715652,-0.0003909120860043913]},{"bufferView":1,"componentType":5125,"count":21660,"type":"SCALAR"}]}